<?xml version="1.0" standalone="no"?>
<!DOCTYPE svg PUBLIC "-//W3C//DTD SVG 20010904//EN"
 "http://www.w3.org/TR/2001/REC-SVG-20010904/DTD/svg10.dtd">
<svg version="1.0" xmlns="http://www.w3.org/2000/svg"
 width="376.000000pt" height="134.000000pt" viewBox="0 0 376.000000 134.000000"
 preserveAspectRatio="xMidYMid meet">

<g transform="translate(0.000000,134.000000) scale(0.100000,-0.100000)"
fill="#000000" stroke="none">
<path d="M243 1091 c-53 -38 -90 -87 -114 -151 -24 -64 -24 -116 1 -157 18
-31 76 -70 87 -59 3 3 -2 23 -11 46 -20 50 -20 102 -2 164 16 52 60 126 76
126 16 0 13 -551 -4 -628 -7 -34 -10 -64 -8 -67 14 -13 67 35 88 80 23 49 24
56 24 352 0 289 -1 303 -19 313 -34 18 -77 11 -118 -19z"/>
<path d="M1260 1063 c0 -32 -4 -63 -8 -70 -4 -6 -30 -13 -57 -15 -46 -3 -50
-5 -53 -30 -3 -24 0 -28 21 -28 14 0 39 -3 56 -6 l31 -6 0 -112 c0 -100 -3
-118 -25 -163 -15 -28 -33 -57 -40 -63 -13 -11 -15 -7 -15 20 0 17 -7 44 -16
58 -13 22 -72 75 -116 103 -6 4 -1 24 11 47 25 49 27 88 5 96 -33 13 -57 5
-90 -28 -36 -36 -42 -67 -23 -110 11 -23 7 -35 -36 -108 -53 -94 -78 -123 -94
-114 -7 5 -11 60 -11 161 l0 154 -26 20 c-33 26 -74 27 -106 2 -29 -23 -71
-99 -90 -161 l-13 -45 -5 104 c-5 104 -5 104 -33 114 -56 18 -57 15 -57 -192
0 -104 4 -201 10 -215 7 -21 16 -26 42 -26 l33 0 22 91 c23 95 75 216 111 259
l22 25 -2 -155 c-1 -182 7 -213 59 -218 44 -4 95 44 163 157 30 50 58 91 61
91 14 0 89 -90 95 -114 7 -31 -18 -76 -43 -76 -8 0 -31 10 -51 22 l-35 21 -19
-23 c-39 -48 -1 -80 95 -80 94 0 148 35 195 124 l21 38 7 -38 c14 -80 53 -124
109 -124 34 0 71 32 97 83 l14 28 19 -40 c10 -22 28 -47 41 -56 50 -33 146 -7
175 46 l12 23 15 -30 c21 -40 41 -53 83 -54 26 0 42 7 64 30 l28 29 34 -29
c51 -45 112 -40 171 13 l22 20 0 -21 c0 -13 -24 -42 -65 -79 -84 -74 -125
-135 -125 -183 0 -74 78 -125 153 -101 82 28 117 108 117 271 0 89 0 90 41
142 22 29 61 97 87 150 45 94 48 98 80 98 l33 0 -8 -62 c-23 -181 17 -278 116
-278 19 0 38 10 56 28 l27 29 28 -29 c50 -49 133 -35 189 32 15 19 20 21 21 9
0 -32 50 -69 91 -69 31 0 43 6 61 31 l23 31 5 -29 c5 -25 9 -28 51 -31 l47 -3
7 88 c7 90 34 194 58 227 11 15 15 2 24 -101 13 -132 25 -171 60 -179 37 -10
53 2 53 39 0 52 20 145 43 206 l22 56 6 -110 c7 -127 20 -177 56 -205 28 -21
73 -26 102 -10 23 12 51 80 51 121 0 42 -20 33 -37 -17 -8 -21 -21 -46 -29
-54 -14 -13 -17 -13 -34 8 -24 29 -34 110 -28 226 3 50 3 97 1 104 -6 16 -56
42 -83 42 -25 0 -52 -54 -79 -160 -9 -38 -20 -73 -24 -77 -4 -3 -7 37 -7 91 0
90 -2 99 -25 122 -17 17 -34 24 -53 22 -24 -3 -31 -13 -58 -81 -17 -43 -33
-79 -35 -82 -3 -2 -3 26 -1 63 1 37 -1 73 -6 80 -5 7 -25 15 -45 19 l-36 5 -3
-153 c-3 -133 -6 -159 -24 -194 -25 -48 -56 -57 -76 -23 -9 17 -12 66 -11 178
1 96 -2 159 -9 167 -16 19 -78 17 -78 -3 0 -12 -7 -10 -32 11 -67 57 -159 5
-193 -109 -10 -31 -15 -85 -14 -139 1 -77 -1 -92 -19 -109 -26 -27 -49 -18
-67 27 -19 44 -19 97 1 191 23 112 8 134 -77 115 -59 -14 -69 -13 -63 3 9 24
-15 56 -41 56 -53 0 -85 -71 -50 -110 14 -15 14 -22 0 -59 -8 -23 -32 -75 -52
-114 l-38 -72 -3 155 c-3 167 -4 170 -59 170 -25 0 -33 -5 -34 -17 0 -11 -3
-13 -6 -5 -7 17 -57 42 -85 42 -44 0 -88 -38 -116 -98 -21 -47 -26 -73 -28
-155 -3 -130 -37 -185 -78 -125 -13 18 -16 54 -16 184 0 177 1 174 -61 174
-21 0 -29 -5 -29 -17 0 -11 -3 -14 -8 -7 -14 21 -57 44 -82 44 -74 0 -132 -86
-148 -221 -10 -80 -27 -122 -61 -153 -20 -18 -23 -18 -37 -4 -26 25 -33 92
-27 246 l6 142 62 0 c48 0 64 4 69 16 13 33 6 44 -26 44 -18 0 -50 3 -70 6
l-37 7 6 58 c6 57 5 59 -21 69 -15 5 -38 10 -52 10 -23 0 -24 -3 -24 -57z
m432 -273 c34 -67 18 -216 -28 -265 -29 -31 -50 -29 -76 6 -40 53 -31 216 14
274 29 37 68 31 90 -15z m412 25 c21 -22 29 -75 24 -154 -6 -78 -31 -138 -66
-154 -75 -34 -108 165 -47 283 21 41 61 53 89 25z m726 5 c23 -12 40 -68 40
-131 0 -101 -52 -199 -98 -185 -62 20 -69 240 -10 304 24 24 40 27 68 12z
m-703 -590 c-21 -72 -77 -91 -111 -38 -15 25 19 100 72 160 l47 52 3 -65 c1
-35 -3 -84 -11 -109z"/>
</g>
</svg>
